HIERARCHY
ROOT root
{
	OFFSET 0.000000 0.000000 0.000000
	CHANNELS 6 Xposition Yposition Zposition Zrotation Yrotation Xrotation
	JOINT lhip
	{
		OFFSET 0.058581 -0.082280 -0.017664
		CHANNELS 3 Zrotation Yrotation Xrotation
		JOINT lknee
		{
			OFFSET 0.043451 -0.386469 0.008037
			CHANNELS 3 Zrotation Yrotation Xrotation
			JOINT lankle
			{
				OFFSET -0.014790 -0.426874 -0.037428
				CHANNELS 3 Zrotation Yrotation Xrotation
				JOINT ltoe
				{
					OFFSET 0.041054 -0.060286 0.122042
					CHANNELS 3 Zrotation Yrotation Xrotation
					End Site
					{
						OFFSET 0.000000 0.000000 0.000000
					}
				}
			}
		}
	}
	JOINT rhip
	{
		OFFSET -0.060310 -0.090513 -0.013543
		CHANNELS 3 Zrotation Yrotation Xrotation
		JOINT rknee
		{
			OFFSET -0.043257 -0.383688 -0.004843
			CHANNELS 3 Zrotation Yrotation Xrotation
			JOINT rankle
			{
				OFFSET 0.019056 -0.420046 -0.034562
				CHANNELS 3 Zrotation Yrotation Xrotation
				JOINT rtoe
				{
					OFFSET -0.034840 -0.062106 0.130323
					CHANNELS 3 Zrotation Yrotation Xrotation
					End Site
					{
						OFFSET 0.000000 0.000000 0.000000
					}
				}
			}
		}
	}
	JOINT lowerback
	{
		OFFSET 0.004439 0.124404 -0.038385
		CHANNELS 3 Zrotation Yrotation Xrotation
		JOINT upperback
		{
			OFFSET 0.004488 0.137956 0.026820
			CHANNELS 3 Zrotation Yrotation Xrotation
			JOINT chest
			{
				OFFSET -0.002265 0.056032 0.002855
				CHANNELS 3 Zrotation Yrotation Xrotation
				JOINT lowerneck
				{
					OFFSET -0.013390 0.211636 -0.033468
					CHANNELS 3 Zrotation Yrotation Xrotation
					JOINT upperneck
					{
						OFFSET 0.010113 0.088937 0.050410
						CHANNELS 3 Zrotation Yrotation Xrotation
						End Site
						{
							OFFSET 0.000000 0.000000 0.000000
						}
					}
				}
				JOINT lclavicle
				{
					OFFSET 0.071702 0.114000 -0.018898
					CHANNELS 3 Zrotation Yrotation Xrotation
					JOINT lshoulder
					{
						OFFSET 0.122921 0.045205 -0.019046
						CHANNELS 3 Zrotation Yrotation Xrotation
						JOINT lelbow
						{
							OFFSET 0.255332 -0.015649 -0.022946
							CHANNELS 3 Zrotation Yrotation Xrotation
							JOINT lwrist
							{
								OFFSET 0.265709 0.012698 -0.007375
								CHANNELS 3 Zrotation Yrotation Xrotation
								End Site
								{
									OFFSET 0.000000 0.000000 0.000000
								}
							}
						}
					}
				}
				JOINT rclavicle
				{
					OFFSET -0.082954 0.112472 -0.023707
					CHANNELS 3 Zrotation Yrotation Xrotation
					JOINT rshoulder
					{
						OFFSET -0.113228 0.046853 -0.008472
						CHANNELS 3 Zrotation Yrotation Xrotation
						JOINT relbow
						{
							OFFSET -0.260127 -0.014369 -0.031269
							CHANNELS 3 Zrotation Yrotation Xrotation
							JOINT rwrist
							{
								OFFSET -0.269108 0.006794 -0.006027
								CHANNELS 3 Zrotation Yrotation Xrotation
								End Site
								{
									OFFSET 0.000000 0.000000 0.000000
								}
							}
						}
					}
				}
			}
		}
	}
}
MOTION
Frames: 16
Frame Time: 0.033333
1.008517 -1.189411 0.986986 -94.444205 1.305005 92.775052 -0.685990 2.953587 -3.805539 -0.591037 6.972940 17.640373 5.855040 15.902038 -14.108270 0.000000 -0.000000 0.000000 7.553340 2.718235 -17.344024 -3.384633 -7.523586 15.564129 -2.858465 -11.348588 -5.347365 0.000000 -0.000000 0.000000 -0.828010 -1.334515 8.680557 1.659579 -1.385751 -3.644310 1.874812 -1.545286 -0.868411 1.902878 -6.089163 -6.158973 6.408649 -4.438784 -1.804612 -15.018936 -4.242073 4.812174 -74.683673 -11.751299 13.480597 11.293773 -24.478358 15.373072 3.017100 -1.489347 -7.069489 10.456366 3.466695 0.780845 72.231544 8.188176 15.214025 -12.153112 25.959328 13.832501 9.830184 1.364053 -4.898714 
1.005187 -1.188103 0.987490 -94.624364 1.206005 92.744872 -0.373198 3.134881 -4.119795 -0.920390 7.097177 18.837872 5.542412 15.645499 -13.805693 0.000000 -0.000000 0.000000 7.662153 2.173117 -16.670416 -3.263197 -7.022374 14.819488 -2.763333 -11.144128 -5.419536 0.000000 -0.000000 0.000000 -0.697722 -1.302192 9.148430 1.636411 -1.288392 -4.245633 1.841546 -1.564839 -0.703621 2.135871 -6.209587 -6.320265 6.204584 -4.661727 -1.440265 -15.157615 -4.508477 4.692848 -74.744781 -11.292876 13.683523 10.703917 -25.384193 16.625494 3.103002 -1.424403 -7.436330 10.295585 3.734273 0.676492 72.581285 8.320953 15.544625 -12.299606 27.253827 13.660917 9.216328 1.463327 -5.968801 
1.002031 -1.186900 0.987842 -94.732319 1.060676 92.932688 -0.082521 3.191914 -4.578900 -1.229503 7.445877 19.896024 5.229056 15.133451 -13.626742 0.000000 -0.000000 0.000000 7.599618 1.984340 -16.238841 -3.226418 -6.957887 14.106863 -2.786388 -10.761343 -5.397585 0.000000 -0.000000 0.000000 -0.626887 -1.147139 9.148385 1.638177 -1.345514 -4.388465 1.776849 -1.538262 -0.765411 2.277276 -6.281648 -6.443658 6.121575 -4.977619 -1.108071 -15.086462 -4.659252 4.651113 -74.977321 -11.106395 13.963356 10.160851 -26.108699 17.710889 2.462426 -1.583656 -7.347726 10.149916 3.967546 0.742059 72.787041 8.579475 15.678828 -12.309679 28.096612 13.681228 9.361216 1.513711 -6.236385 
0.998321 -1.185612 0.988238 -94.712585 0.852801 93.077228 0.209305 3.330178 -5.002339 -1.603214 7.747927 21.004739 4.844314 14.480230 -13.322521 0.000000 -0.000000 0.000000 7.439034 1.734718 -15.888052 -3.149221 -6.992115 13.711691 -2.857220 -10.403392 -5.523294 0.000000 -0.000000 0.000000 -0.482573 -1.041808 9.193075 1.589253 -1.432956 -4.400268 1.643490 -1.439813 -0.906097 2.313659 -6.335934 -6.433300 6.183117 -5.311261 -1.078973 -15.119782 -4.899477 4.638734 -75.036310 -10.986513 14.274637 9.518776 -26.858721 18.911167 1.757290 -1.835854 -7.254898 10.070169 4.198476 0.777046 72.808379 8.741660 15.667347 -12.137063 28.640136 13.959277 9.537967 1.586809 -6.334418 
0.996205 -1.184847 0.988341 -94.589766 0.730781 93.075043 0.404138 3.429539 -5.162539 -1.851795 7.872689 21.670623 4.622701 14.119693 -13.245090 0.000000 -0.000000 0.000000 7.310830 1.566158 -15.744791 -3.070100 -7.046130 13.769037 -2.869764 -10.284447 -5.682936 0.000000 -0.000000 0.000000 -0.410225 -1.027416 9.330380 1.556682 -1.471709 -4.428897 1.573709 -1.451144 -0.933252 2.374573 -6.438424 -6.576876 6.204413 -5.468456 -1.055296 -15.128202 -5.059411 4.645242 -74.985921 -10.968831 14.412412 9.119363 -27.270881 19.432141 1.463109 -1.985074 -7.255243 9.994065 4.381761 0.769142 72.692131 8.801488 15.639486 -11.824823 28.634854 14.152225 9.648001 1.624573 -6.261553 
0.993572 -1.183760 0.988343 -94.367915 0.577427 93.054617 0.653168 3.521544 -5.342308 -2.187661 7.896121 22.465889 4.386785 13.715732 -13.199871 0.000000 -0.000000 0.000000 7.143823 1.384589 -15.747614 -2.953401 -7.113433 14.198636 -2.886231 -10.298790 -5.943515 0.000000 -0.000000 0.000000 -0.362480 -1.053462 9.567866 1.532378 -1.527836 -4.508232 1.499070 -1.467129 -0.952938 2.443559 -6.472634 -6.812302 6.224023 -5.588277 -0.978656 -15.155020 -5.268446 4.668135 -74.844900 -10.963919 14.572063 8.691535 -27.685479 19.965526 1.156026 -2.157474 -7.313204 9.968087 4.608366 0.801106 72.518757 8.792751 15.548020 -11.651873 28.323355 14.310871 9.861708 1.569338 -6.017352 
0.990913 -1.182792 0.988194 -94.124489 0.371260 92.961572 0.776820 3.632460 -5.388540 -2.487622 7.838548 23.150654 4.210467 13.419185 -13.145009 0.000000 -0.000000 0.000000 6.942472 1.218731 -15.672372 -2.900720 -7.186080 14.627065 -2.975911 -10.315318 -6.299092 0.000000 -0.000000 0.000000 -0.429050 -1.084184 9.788453 1.513914 -1.586709 -4.514073 1.479799 -1.476139 -0.984882 2.504133 -6.531458 -6.845530 6.339931 -5.741712 -0.960884 -15.166834 -5.560449 4.759553 -74.664743 -10.995914 14.696261 8.398077 -27.911955 20.380088 1.051497 -2.272070 -7.310108 9.935242 4.834886 0.899491 72.274272 8.740137 15.332093 -11.484987 27.605777 14.438853 9.879441 1.476763 -5.845740 
0.988468 -1.181554 0.988000 -93.870387 0.260455 92.881367 1.008808 3.725440 -5.515780 -2.717282 7.845711 23.930644 3.986883 13.148460 -13.162635 0.000000 -0.000000 0.000000 6.896452 1.122917 -15.530219 -2.887243 -7.144986 14.881731 -3.100219 -10.350651 -6.592218 0.000000 -0.000000 0.000000 -0.479118 -1.080533 9.950281 1.521548 -1.677715 -4.454834 1.476185 -1.495348 -1.039569 2.515974 -6.566010 -6.821083 6.494775 -5.850291 -0.977693 -15.157798 -5.811349 4.891730 -74.457914 -11.098056 14.753129 8.275440 -27.985548 20.598605 0.964648 -2.358849 -7.278850 9.983445 5.029441 1.018137 71.976922 8.636611 15.044006 -11.385403 26.563961 14.594697 10.083747 1.377693 -5.704925 
0.986248 -1.180427 0.987898 -93.592182 0.172755 92.837357 1.273349 3.683956 -5.773272 -2.932334 7.960410 24.838450 3.802959 12.843808 -13.019709 0.000000 -0.000000 0.000000 6.845030 0.947976 -15.353947 -2.812433 -7.223762 14.960553 -3.212668 -10.382897 -6.724671 0.000000 -0.000000 0.000000 -0.549292 -0.991983 10.090925 1.560793 -1.787359 -4.478265 1.502869 -1.526831 -1.064917 2.521350 -6.629612 -6.731016 6.672879 -5.968208 -0.905918 -15.128954 -5.998839 5.021748 -74.306843 -11.233835 14.768064 8.330167 -27.864395 20.815825 0.659111 -2.432861 -7.192079 10.044599 5.075140 1.141394 71.768485 8.457782 14.644246 -11.741010 25.180783 14.778812 10.547052 1.243728 -5.077427 
0.983792 -1.179128 0.987797 -93.349803 0.017145 92.820220 1.598275 3.645154 -6.363774 -3.267748 8.275850 26.332445 3.410056 12.458601 -12.653966 0.000000 -0.000000 0.000000 6.721732 0.672063 -15.090387 -2.714407 -7.252745 14.846455 -3.337005 -10.246235 -6.949054 0.000000 -0.000000 0.000000 -0.638278 -0.871481 10.282464 1.532250 -1.921438 -4.607218 1.487221 -1.499509 -1.078291 2.554556 -6.736739 -6.657626 6.919200 -6.112591 -0.748885 -15.025877 -5.980416 5.077310 -74.143267 -11.310000 14.688148 8.519237 -27.650109 20.830631 0.474270 -2.486127 -7.242364 10.055921 5.009452 1.318453 71.535432 8.223596 14.185623 -11.960825 23.288070 15.168993 11.083627 1.024804 -4.519729 
0.982380 -1.178165 0.987768 -93.185027 -0.095348 92.773428 1.976180 3.573846 -7.069633 -3.627563 8.666575 27.908931 3.014959 12.145366 -12.191068 0.000000 -0.000000 0.000000 6.650974 0.444549 -14.901868 -2.632098 -7.219674 14.776394 -3.455029 -10.200867 -7.023590 0.000000 -0.000000 0.000000 -0.754994 -0.673553 10.461222 1.533219 -1.972537 -4.656569 1.506486 -1.509923 -1.040549 2.527807 -6.861005 -6.648159 7.132351 -6.199397 -0.757635 -14.971552 -5.950674 5.102747 -73.987504 -11.448906 14.575946 8.726612 -27.430829 20.591990 0.623594 -2.406607 -7.481079 10.037907 4.939803 1.416308 71.263247 7.993544 13.841005 -11.935871 21.822182 15.364969 11.169018 0.731549 -4.397894 
0.981395 -1.176702 0.987748 -93.187453 0.028423 92.684606 2.731640 3.694350 -7.868285 -4.073805 8.805486 29.759499 2.445290 11.531396 -11.681292 0.000000 -0.000000 0.000000 6.902643 0.009594 -14.744410 -2.536530 -7.161062 14.789052 -3.481173 -9.814359 -7.148440 0.000000 -0.000000 0.000000 -0.709737 -0.337847 10.662394 1.558915 -1.969668 -4.606211 1.526192 -1.481237 -1.004871 2.455546 -6.911923 -6.736948 7.399252 -6.324332 -0.815801 -14.921544 -5.981925 5.092218 -73.790860 -11.561851 14.424394 8.982378 -27.177295 20.280051 0.824206 -2.377067 -7.742088 10.003088 4.926080 1.531284 70.963154 7.755413 13.364285 -11.857856 20.413493 15.601762 11.187161 0.618665 -4.376739 
0.980810 -1.176613 0.987755 -93.172307 -0.165627 92.484100 3.095243 3.639904 -8.522264 -4.470996 8.995701 31.515182 1.833041 10.877613 -11.038847 0.000000 -0.000000 0.000000 6.664657 -0.234041 -14.484912 -2.436141 -7.123594 14.790443 -3.626060 -9.636010 -7.307573 0.000000 -0.000000 0.000000 -0.775794 -0.120685 10.989182 1.454066 -1.991480 -4.478113 1.476660 -1.416271 -0.961537 2.385724 -6.933386 -6.874175 7.617468 -6.386817 -0.935594 -14.946100 -5.984761 5.025199 -73.587960 -11.670504 14.249465 9.344319 -26.910302 19.854230 0.985509 -2.320567 -7.834131 10.030579 4.985343 1.644643 70.645910 7.565526 12.989617 -11.935425 19.237617 15.658365 11.333639 0.471333 -4.263323 
0.980376 -1.176645 0.987650 -93.284296 -0.348224 92.200574 3.658933 3.742339 -8.917367 -5.035421 9.040441 33.066068 0.694271 10.023398 -10.660309 0.000000 -0.000000 0.000000 6.452203 -0.513542 -14.161816 -2.393361 -6.957568 14.818136 -3.663164 -9.334873 -7.465473 0.000000 -0.000000 0.000000 -0.826077 0.085768 11.339480 1.338751 -1.977795 -4.219133 1.437581 -1.326686 -0.986689 2.221974 -6.900516 -6.998372 7.760473 -6.366608 -1.039304 -15.052098 -5.991862 4.958121 -73.488621 -11.747127 13.961309 9.795336 -26.515166 19.279250 1.408996 -2.223425 -7.925637 10.008211 5.053368 1.755168 70.348850 7.411078 12.573275 -11.961896 18.342563 15.812166 11.264280 0.333751 -4.101314 
0.980249 -1.176910 0.987563 -93.482518 -0.500009 92.006369 4.211701 3.852114 -9.148508 -5.566345 8.661548 34.132010 -0.219872 9.174866 -10.925201 0.000000 -0.000000 0.000000 6.270239 -0.778164 -13.949785 -2.345586 -6.782092 14.815827 -3.590100 -9.102987 -7.572284 0.000000 -0.000000 0.000000 -0.902498 0.255883 11.583485 1.221122 -1.902941 -4.038070 1.438247 -1.250403 -1.009044 2.127585 -6.892493 -6.934976 7.830815 -6.286923 -1.026352 -15.150665 -5.870335 4.929116 -73.614179 -11.856101 13.688098 10.306975 -25.920121 18.717456 1.793374 -2.141185 -8.037634 10.055042 5.027897 1.855437 70.079203 7.292986 12.188413 -12.048183 17.701819 15.929126 11.315508 0.292368 -3.815306 
0.980598 -1.178030 0.987498 -93.698133 -0.618754 91.997625 4.526587 3.715822 -9.309145 -5.602836 8.208179 34.546889 0.532572 9.393837 -12.338710 0.000000 -0.000000 0.000000 6.058258 -0.940961 -14.014686 -2.230902 -6.482971 14.897743 -3.452450 -9.096267 -7.710634 0.000000 -0.000000 0.000000 -0.865308 0.367765 11.677752 1.087414 -1.840083 -4.076493 1.422344 -1.198668 -0.917183 2.024974 -6.887844 -6.892970 7.716009 -6.050237 -0.856209 -15.286257 -5.612681 4.882190 -73.861126 -11.948962 13.470473 10.646144 -25.280451 18.376944 2.034654 -1.951311 -8.179549 10.047796 4.866194 1.878545 69.812422 7.198251 11.941877 -12.078406 17.418117 15.957478 11.358776 0.232839 -3.633267 
